<mxfile host="app.diagrams.net" agent="Mozilla/5.0 (Windows NT 10.0; Win64; x64) AppleWebKit/537.36 (KHTML, like Gecko) Chrome/136.0.0.0 Safari/537.36" version="27.1.0">
  <diagram name="Halaman-1" id="zBEgOzXSXY71wdjzPO8e">
    <mxGraphModel dx="872" dy="465" grid="1" gridSize="10" guides="1" tooltips="1" connect="1" arrows="1" fold="1" page="1" pageScale="1" pageWidth="827" pageHeight="1169" math="0" shadow="0">
      <root>
        <mxCell id="0" />
        <mxCell id="1" parent="0" />
        <mxCell id="OJFxynJDYr_LN-XRGVfB-4" style="edgeStyle=orthogonalEdgeStyle;rounded=0;orthogonalLoop=1;jettySize=auto;html=1;exitX=1;exitY=0.5;exitDx=0;exitDy=0;startArrow=classic;startFill=1;" parent="1" source="OJFxynJDYr_LN-XRGVfB-1" target="OJFxynJDYr_LN-XRGVfB-2" edge="1">
          <mxGeometry relative="1" as="geometry" />
        </mxCell>
        <mxCell id="OJFxynJDYr_LN-XRGVfB-1" value="Pemilik" style="rounded=0;whiteSpace=wrap;html=1;" parent="1" vertex="1">
          <mxGeometry x="350" y="220" width="120" height="60" as="geometry" />
        </mxCell>
        <mxCell id="OJFxynJDYr_LN-XRGVfB-2" value="Notifikasi" style="rounded=0;whiteSpace=wrap;html=1;" parent="1" vertex="1">
          <mxGeometry x="620" y="220" width="120" height="60" as="geometry" />
        </mxCell>
        <mxCell id="OJFxynJDYr_LN-XRGVfB-5" value="Mengirim" style="text;html=1;align=center;verticalAlign=middle;whiteSpace=wrap;rounded=0;" parent="1" vertex="1">
          <mxGeometry x="520" y="220" width="60" height="30" as="geometry" />
        </mxCell>
        <mxCell id="5PhQMusaPDsNsF2XrhbH-6" value="Menerima" style="text;html=1;align=center;verticalAlign=middle;whiteSpace=wrap;rounded=0;" vertex="1" parent="1">
          <mxGeometry x="520" y="260" width="60" height="30" as="geometry" />
        </mxCell>
        <mxCell id="5PhQMusaPDsNsF2XrhbH-9" value="" style="triangle;whiteSpace=wrap;html=1;gradientColor=default;fillColor=#010101;rotation=1;direction=west;" vertex="1" parent="1">
          <mxGeometry x="510" y="270" width="10" height="10" as="geometry" />
        </mxCell>
        <mxCell id="5PhQMusaPDsNsF2XrhbH-11" value="" style="triangle;whiteSpace=wrap;html=1;gradientColor=default;fillColor=#010101;rotation=1;direction=east;" vertex="1" parent="1">
          <mxGeometry x="580" y="230" width="10" height="10" as="geometry" />
        </mxCell>
      </root>
    </mxGraphModel>
  </diagram>
</mxfile>
